# Blender v2.82 (sub 7) OBJ File: 'keycard.blend'
# www.blender.org
mtllib keycard.mtl
o Cube
v 0.030000 -0.000500 0.045000
v 0.025000 -0.000500 0.050000
v 0.029330 -0.000500 0.047500
v 0.027500 -0.000500 0.049330
v 0.025000 0.000500 0.050000
v 0.030000 0.000500 0.045000
v 0.027500 0.000500 0.049330
v 0.029330 0.000500 0.047500
v 0.025000 -0.000500 -0.050000
v 0.030000 -0.000500 -0.045000
v 0.027500 -0.000500 -0.049330
v 0.029330 -0.000500 -0.047500
v 0.030000 0.000500 -0.045000
v 0.025000 0.000500 -0.050000
v 0.029330 0.000500 -0.047500
v 0.027500 0.000500 -0.049330
v -0.025000 -0.000500 0.050000
v -0.030000 -0.000500 0.045000
v -0.027500 -0.000500 0.049330
v -0.029330 -0.000500 0.047500
v -0.030000 0.000500 0.045000
v -0.025000 0.000500 0.050000
v -0.029330 0.000500 0.047500
v -0.027500 0.000500 0.049330
v -0.030000 -0.000500 -0.045000
v -0.025000 -0.000500 -0.050000
v -0.029330 -0.000500 -0.047500
v -0.027500 -0.000500 -0.049330
v -0.025000 0.000500 -0.050000
v -0.030000 0.000500 -0.045000
v -0.027500 0.000500 -0.049330
v -0.029330 0.000500 -0.047500
vt 0.489562 0.780941
vt 0.448837 0.821666
vt 0.448837 0.007167
vt 0.489562 0.047892
vt 0.059163 0.906157
vt 0.059249 0.891376
vt 0.906128 0.890932
vt 0.906042 0.905713
vt 0.317356 0.946012
vt 0.317356 0.933954
vt 0.920219 0.933954
vt 0.920219 0.946012
vt 0.997039 0.780941
vt 0.956314 0.821666
vt 0.956314 0.007167
vt 0.997039 0.047892
vt 0.059163 0.863135
vt 0.059249 0.848355
vt 0.906128 0.847910
vt 0.906042 0.862691
vt 0.020908 0.862913
vt 0.020994 0.848132
vt 0.203352 0.977973
vt 0.203352 0.965915
vt 0.234561 0.965915
vt 0.234561 0.977973
vt 0.265770 0.965914
vt 0.265770 0.977972
vt 0.951429 0.933954
vt 0.951429 0.946012
vt 0.982637 0.933954
vt 0.982637 0.946012
vt 0.020908 0.905935
vt 0.020994 0.891154
vt 0.286150 0.946012
vt 0.286150 0.933954
vt 0.982637 0.848355
vt 0.982552 0.863135
vt 0.944297 0.862913
vt 0.944383 0.848133
vt 0.868635 0.977973
vt 0.868635 0.965915
vt 0.899841 0.965915
vt 0.899841 0.977973
vt 0.982637 0.891377
vt 0.982552 0.906157
vt 0.944297 0.905935
vt 0.944383 0.891154
vt 0.549064 0.007167
vt 0.508339 0.047892
vt 0.513795 0.027529
vt 0.528702 0.012623
vt 0.549064 0.821666
vt 0.508339 0.780941
vt 0.528702 0.816210
vt 0.513795 0.801304
vt 0.976677 0.012623
vt 0.991583 0.027529
vt 0.991583 0.801304
vt 0.976676 0.816210
vt 0.041587 0.007167
vt 0.000862 0.047892
vt 0.006318 0.027529
vt 0.021224 0.012623
vt 0.041587 0.821666
vt 0.000862 0.780941
vt 0.021224 0.816210
vt 0.006318 0.801304
vt 0.469199 0.012623
vt 0.484106 0.027529
vt 0.484106 0.801304
vt 0.469199 0.816210
vn -0.0000 1.0000 0.0000
vn -0.9914 0.0000 -0.1305
vn -0.9914 0.0000 0.1305
vn 0.1305 0.0000 -0.9914
vn -0.1305 0.0000 -0.9914
vn -0.0000 -1.0000 -0.0000
vn 0.9914 0.0000 0.1305
vn 0.9914 0.0000 -0.1305
vn 0.8660 0.0000 0.5000
vn 0.5000 0.0000 0.8660
vn 0.1305 0.0000 0.9914
vn -0.5000 0.0000 -0.8660
vn -0.8660 0.0000 -0.5000
vn 0.5000 0.0000 -0.8660
vn 0.8660 0.0000 -0.5000
vn -0.1305 0.0000 0.9914
vn -0.5000 0.0000 0.8660
vn -0.8660 0.0000 0.5000
g Cube_Cube_Material
usemtl Material
s 1
f 21/1/1 22/2/1 29/3/1 30/4/1
f 30/5/2 25/6/2 18/7/3 21/8/3
f 14/9/4 9/10/4 26/11/5 29/12/5
f 1/13/6 2/14/6 9/15/6 10/16/6
f 6/17/7 1/18/7 10/19/8 13/20/8
f 1/18/7 6/17/7 8/21/9 3/22/9
f 3/23/9 8/24/9 7/25/10 4/26/10
f 4/26/10 7/25/10 5/27/11 2/28/11
f 29/12/5 26/11/5 28/29/12 31/30/12
f 31/30/12 28/29/12 27/31/13 32/32/13
f 32/33/13 27/34/13 25/6/2 30/5/2
f 9/10/4 14/9/4 16/35/14 11/36/14
f 11/37/14 16/38/14 15/39/15 12/40/15
f 12/40/15 15/39/15 13/20/8 10/19/8
f 17/41/16 22/42/16 24/43/17 19/44/17
f 19/45/17 24/46/17 23/47/18 20/48/18
f 20/48/18 23/47/18 21/8/3 18/7/3
f 22/42/16 17/41/16 2/28/11 5/27/11
f 26/49/6 25/50/6 27/51/6 28/52/6
f 25/50/6 26/49/6 17/53/6 18/54/6
f 18/54/6 17/53/6 19/55/6 20/56/6
f 10/16/6 9/15/6 11/57/6 12/58/6
f 9/15/6 2/14/6 17/53/6 26/49/6
f 2/14/6 1/13/6 3/59/6 4/60/6
f 14/61/1 13/62/1 15/63/1 16/64/1
f 13/62/1 14/61/1 5/65/1 6/66/1
f 6/66/1 5/65/1 7/67/1 8/68/1
f 30/4/1 29/3/1 31/69/1 32/70/1
f 29/3/1 22/2/1 5/65/1 14/61/1
f 22/2/1 21/1/1 23/71/1 24/72/1
